<?xml version="1.0" encoding="utf-8"?>
<!-- Generator: Adobe Illustrator 21.0.0, SVG Export Plug-In . SVG Version: 6.00 Build 0)  -->
<svg version="1.1" id="Layer_1" xmlns="http://www.w3.org/2000/svg" xmlns:xlink="http://www.w3.org/1999/xlink" x="0px" y="0px"
	 viewBox="0 0 157.3 49.3" style="enable-background:new 0 0 157.3 49.3;" xml:space="preserve">
<style type="text/css">
	.st0{fill:#DBAF63;}
	.st1{fill:#D7D7D7;}
</style>
<g>
	<g>
		<polygon class="st0" points="11,6.6 49,6.6 49,16.5 51,17.5 51,4.1 9,4.1 9,17.5 11,16.5 		"/>
		<polygon class="st0" points="49,43.6 11,43.6 11,21 9,22 9,46.1 51,46.1 51,22 49,21 		"/>
		<path class="st0" d="M51,18.4l-2-1L30,7.9l-19,9.5l-2,1l-4.9,2.4L4.5,22l0.4,1.2L9,21.1l2-1l18.7-9.4v7.3
			c-2.1,0.2-3.8,1.9-3.8,4.1h8.3c0-2.2-1.7-3.9-3.8-4.1v-7.3L49,20.1l2,1l4.1,2.1l0.4-1.2l0.4-1.2L51,18.4z"/>
		<polygon class="st0" points="17.2,30 17.2,43.5 18.5,43.5 18.5,39 22.7,39 22.7,43.5 24,43.5 24,37.7 18.5,37.7 18.5,30 		"/>
		<polygon class="st0" points="42.7,43.5 42.7,30 41.5,30 41.5,37.7 36,37.7 36,43.5 37.3,43.5 37.3,39 41.5,39 41.5,43.5 		"/>
		<path class="st0" d="M21.8,35.7h3.5v3.3v0.6v4h1.3v-3.4h6.9v3.4h1.3v-4v-0.6v-3.3h3.5v-1.3H21.8V35.7z M33.4,38.9h-6.9v-3.3h6.9
			V38.9z"/>
	</g>
	<path class="st1" d="M67.9,30.6c0,0.2-0.1,0.4-0.3,0.4c-0.7,0.1-1.4,0.2-2.1,0.2c-0.8,0-2.2,0.1-4.2,0.1c-0.2,0-0.4-0.2-0.4-0.4V21
		c0-0.2,0.2-0.4,0.4-0.4h1.4c0.2,0,0.4,0.2,0.4,0.4v8.1c0,0.2,0.2,0.4,0.4,0.4c1.5,0,2.8-0.1,3.9-0.2c0.2,0,0.4,0.1,0.4,0.3
		L67.9,30.6z M72.4,36v-7.8c0-0.2-0.2-0.4-0.4-0.4h-0.8c-0.2,0-0.4,0.2-0.4,0.4v7.3c0,0.2-0.2,0.4-0.4,0.4H69
		c-0.2,0-0.4-0.2-0.4-0.4V20c0-0.2,0.2-0.4,0.4-0.4h1.4c0.2,0,0.4,0.2,0.4,0.4v5.6c0,0.2,0.2,0.4,0.4,0.4H72c0.2,0,0.4-0.2,0.4-0.4
		v-5.9c0-0.2,0.2-0.4,0.4-0.4h1.4c0.2,0,0.4,0.2,0.4,0.4V36c0,0.2-0.2,0.4-0.4,0.4h-1.4C72.6,36.4,72.4,36.2,72.4,36z"/>
	<path class="st0" d="M89.3,28.5c-1.7-0.9-3.1-2-4.1-3.2c-0.2-0.3-0.6-0.3-0.8,0c-0.4,0.6-1,1.3-1.7,2c-0.9,0.8-1.7,1.5-2.6,1.9
		c-0.2,0.1-0.4,0.1-0.6-0.1L78.4,28c-0.2-0.2-0.2-0.7,0.2-0.8c1.2-0.6,2.2-1.4,3.2-2.4c1.1-1.3,1.6-2.6,1.6-4v-0.4h-4
		c-0.3,0-0.5-0.2-0.5-0.5v-1.4c0-0.3,0.2-0.5,0.5-0.5h10.8c0.3,0,0.5,0.2,0.5,0.5v1.4c0,0.3-0.2,0.5-0.5,0.5h-3.9v0.3
		c0,1.3,0.5,2.5,1.5,3.5c0.8,0.9,1.9,1.6,3.2,2.1c0.3,0.1,0.4,0.5,0.2,0.8L90,28.4C89.8,28.6,89.5,28.6,89.3,28.5z M82.3,38v-7.8
		c0-0.3,0.2-0.5,0.5-0.5h1.8c0.3,0,0.5,0.2,0.5,0.5v1.3c0,0.3,0.2,0.5,0.5,0.5h7.6c0.3,0,0.5-0.2,0.5-0.5v-1.3
		c0-0.3,0.2-0.5,0.5-0.5h1.8c0.3,0,0.5,0.2,0.5,0.5V38c0,0.3-0.2,0.5-0.5,0.5H82.8C82.5,38.5,82.3,38.3,82.3,38z M93.2,34.4h-7.6
		c-0.3,0-0.5,0.2-0.5,0.5v0.8c0,0.3,0.2,0.5,0.5,0.5h7.6c0.3,0,0.5-0.2,0.5-0.5v-0.8C93.7,34.6,93.4,34.4,93.2,34.4z M93.7,28.4
		V17.6c0-0.3,0.2-0.5,0.5-0.5H96c0.3,0,0.5,0.2,0.5,0.5v10.8c0,0.3-0.2,0.5-0.5,0.5h-1.8C93.9,28.8,93.7,28.6,93.7,28.4z"/>
	<g>
		<path class="st1" d="M106.8,36v-6.9c0-0.2-0.2-0.4-0.4-0.4h-6c-0.2,0-0.4-0.2-0.4-0.4v-1.1c0-0.2,0.2-0.4,0.4-0.4h3.9
			c0.2,0,0.3-0.1,0.4-0.3c0.2-1.2,0.3-2.7,0.4-4.4c0-0.2-0.2-0.4-0.4-0.4h-3c-0.2,0-0.4-0.2-0.4-0.4v-1.1c0-0.2,0.2-0.4,0.4-0.4h5.3
			c0.2,0,0.4,0.2,0.4,0.4v1.3c0,1.4-0.1,3-0.4,4.9c0,0.2,0.1,0.4,0.4,0.4h3.8c0.2,0,0.4-0.1,0.4-0.3c0.1-1,0.2-2.5,0.2-4.4
			c0-0.2-0.2-0.4-0.4-0.4h-2.9c-0.2,0-0.4-0.2-0.4-0.4v-1.1c0-0.2,0.2-0.4,0.4-0.4h5.1c0.2,0,0.4,0.2,0.4,0.4c0,2.2-0.1,4.2-0.3,6.2
			c0,0.2,0.2,0.4,0.4,0.4h1.5c0.2,0,0.4,0.2,0.4,0.4v1.1c0,0.2-0.2,0.4-0.4,0.4h-6.1c-0.2,0-0.4,0.2-0.4,0.4V36
			c0,0.2-0.2,0.4-0.4,0.4h-1.5C107,36.4,106.8,36.2,106.8,36z"/>
		<path class="st1" d="M118.3,31.2V21.1c0-0.2,0.2-0.4,0.4-0.4h7.5c0.2,0,0.4,0.2,0.4,0.4v10.1c0,0.2-0.2,0.4-0.4,0.4h-7.5
			C118.5,31.6,118.3,31.4,118.3,31.2z M124,22.6h-3.1c-0.2,0-0.4,0.2-0.4,0.4v6.3c0,0.2,0.2,0.4,0.4,0.4h3.1c0.2,0,0.4-0.2,0.4-0.4
			V23C124.4,22.8,124.2,22.6,124,22.6z M129.4,36V19.6c0-0.2,0.2-0.4,0.4-0.4h1.4c0.2,0,0.4,0.2,0.4,0.4V36c0,0.2-0.2,0.4-0.4,0.4
			h-1.4C129.6,36.4,129.4,36.2,129.4,36z"/>
		<path class="st1" d="M143.7,20.8c0.2,0,0.4,0.2,0.4,0.4c-0.1,2.3-0.8,4.4-2.1,6.4c-1.3,2-3.1,3.6-5.4,4.9
			c-0.1,0.1-0.3,0.1-0.5-0.1l-1.1-1c-0.2-0.2-0.1-0.5,0.1-0.6c1.5-0.7,2.9-1.7,4.1-3.1c1.2-1.4,2-2.9,2.4-4.6
			c0.1-0.2-0.1-0.5-0.4-0.5h-5.2c-0.2,0-0.4-0.2-0.4-0.4v-1.1c0-0.2,0.2-0.4,0.4-0.4H143.7z M146.7,36V19.6c0-0.2,0.2-0.4,0.4-0.4
			h1.4c0.2,0,0.4,0.2,0.4,0.4V36c0,0.2-0.2,0.4-0.4,0.4h-1.4C146.9,36.4,146.7,36.2,146.7,36z"/>
	</g>
</g>
</svg>
